<mxfile host="65bd71144e">
    <diagram id="EcjM28dxEo_eMJWixgPe" name="Page-1">
        <mxGraphModel dx="660" dy="377" grid="1" gridSize="10" guides="1" tooltips="1" connect="1" arrows="1" fold="1" page="1" pageScale="1" pageWidth="850" pageHeight="1100" math="0" shadow="0">
            <root>
                <mxCell id="0"/>
                <mxCell id="1" parent="0"/>
                <mxCell id="2" value="Customer" style="swimlane;fontStyle=0;childLayout=stackLayout;horizontal=1;startSize=26;fillColor=none;horizontalStack=0;resizeParent=1;resizeParentMax=0;resizeLast=0;collapsible=1;marginBottom=0;" vertex="1" parent="1">
                    <mxGeometry x="40" y="40" width="140" height="156" as="geometry"/>
                </mxCell>
                <mxCell id="3" value="id: ObjectId" style="text;strokeColor=none;fillColor=none;align=left;verticalAlign=top;spacingLeft=4;spacingRight=4;overflow=hidden;rotatable=0;points=[[0,0.5],[1,0.5]];portConstraint=eastwest;" vertex="1" parent="2">
                    <mxGeometry y="26" width="140" height="26" as="geometry"/>
                </mxCell>
                <mxCell id="4" value="name: String" style="text;strokeColor=none;fillColor=none;align=left;verticalAlign=top;spacingLeft=4;spacingRight=4;overflow=hidden;rotatable=0;points=[[0,0.5],[1,0.5]];portConstraint=eastwest;" vertex="1" parent="2">
                    <mxGeometry y="52" width="140" height="26" as="geometry"/>
                </mxCell>
                <mxCell id="5" value="phone: String" style="text;strokeColor=none;fillColor=none;align=left;verticalAlign=top;spacingLeft=4;spacingRight=4;overflow=hidden;rotatable=0;points=[[0,0.5],[1,0.5]];portConstraint=eastwest;" vertex="1" parent="2">
                    <mxGeometry y="78" width="140" height="26" as="geometry"/>
                </mxCell>
                <mxCell id="6" value="id_document: String" style="text;strokeColor=none;fillColor=none;align=left;verticalAlign=top;spacingLeft=4;spacingRight=4;overflow=hidden;rotatable=0;points=[[0,0.5],[1,0.5]];portConstraint=eastwest;" vertex="1" parent="2">
                    <mxGeometry y="104" width="140" height="26" as="geometry"/>
                </mxCell>
                <mxCell id="7" value="address: String" style="text;strokeColor=none;fillColor=none;align=left;verticalAlign=top;spacingLeft=4;spacingRight=4;overflow=hidden;rotatable=0;points=[[0,0.5],[1,0.5]];portConstraint=eastwest;" vertex="1" parent="2">
                    <mxGeometry y="130" width="140" height="26" as="geometry"/>
                </mxCell>
                <mxCell id="8" value="Sale" style="swimlane;fontStyle=0;childLayout=stackLayout;horizontal=1;startSize=26;fillColor=none;horizontalStack=0;resizeParent=1;resizeParentMax=0;resizeLast=0;collapsible=1;marginBottom=0;" vertex="1" parent="1">
                    <mxGeometry x="285" y="40" width="140" height="130" as="geometry"/>
                </mxCell>
                <mxCell id="9" value="_id: Objectld" style="text;strokeColor=none;fillColor=none;align=left;verticalAlign=top;spacingLeft=4;spacingRight=4;overflow=hidden;rotatable=0;points=[[0,0.5],[1,0.5]];portConstraint=eastwest;" vertex="1" parent="8">
                    <mxGeometry y="26" width="140" height="26" as="geometry"/>
                </mxCell>
                <mxCell id="10" value="datetime: Date Time" style="text;strokeColor=none;fillColor=none;align=left;verticalAlign=top;spacingLeft=4;spacingRight=4;overflow=hidden;rotatable=0;points=[[0,0.5],[1,0.5]];portConstraint=eastwest;" vertex="1" parent="8">
                    <mxGeometry y="52" width="140" height="26" as="geometry"/>
                </mxCell>
                <mxCell id="11" value="number: Number" style="text;strokeColor=none;fillColor=none;align=left;verticalAlign=top;spacingLeft=4;spacingRight=4;overflow=hidden;rotatable=0;points=[[0,0.5],[1,0.5]];portConstraint=eastwest;" vertex="1" parent="8">
                    <mxGeometry y="78" width="140" height="26" as="geometry"/>
                </mxCell>
                <mxCell id="45" value="customer_id: ObjectId" style="text;strokeColor=none;fillColor=none;align=left;verticalAlign=top;spacingLeft=4;spacingRight=4;overflow=hidden;rotatable=0;points=[[0,0.5],[1,0.5]];portConstraint=eastwest;" vertex="1" parent="8">
                    <mxGeometry y="104" width="140" height="26" as="geometry"/>
                </mxCell>
                <mxCell id="12" value="n" style="endArrow=open;html=1;endSize=12;startArrow=diamondThin;startSize=14;startFill=1;edgeStyle=orthogonalEdgeStyle;align=left;verticalAlign=bottom;exitX=-0.003;exitY=0.187;exitDx=0;exitDy=0;exitPerimeter=0;entryX=0.999;entryY=0.123;entryDx=0;entryDy=0;entryPerimeter=0;" edge="1" parent="1" source="8" target="2">
                    <mxGeometry x="-0.5556" y="-10" relative="1" as="geometry">
                        <mxPoint x="270" y="60" as="sourcePoint"/>
                        <mxPoint x="180" y="60" as="targetPoint"/>
                        <Array as="points">
                            <mxPoint x="270" y="59"/>
                        </Array>
                        <mxPoint as="offset"/>
                    </mxGeometry>
                </mxCell>
                <mxCell id="14" value="Product" style="swimlane;fontStyle=0;childLayout=stackLayout;horizontal=1;startSize=26;fillColor=none;horizontalStack=0;resizeParent=1;resizeParentMax=0;resizeLast=0;collapsible=1;marginBottom=0;" vertex="1" parent="1">
                    <mxGeometry x="520" y="240" width="140" height="156" as="geometry"/>
                </mxCell>
                <mxCell id="15" value="_id:ObjectId" style="text;strokeColor=none;fillColor=none;align=left;verticalAlign=top;spacingLeft=4;spacingRight=4;overflow=hidden;rotatable=0;points=[[0,0.5],[1,0.5]];portConstraint=eastwest;" vertex="1" parent="14">
                    <mxGeometry y="26" width="140" height="26" as="geometry"/>
                </mxCell>
                <mxCell id="16" value="description: String" style="text;strokeColor=none;fillColor=none;align=left;verticalAlign=top;spacingLeft=4;spacingRight=4;overflow=hidden;rotatable=0;points=[[0,0.5],[1,0.5]];portConstraint=eastwest;" vertex="1" parent="14">
                    <mxGeometry y="52" width="140" height="26" as="geometry"/>
                </mxCell>
                <mxCell id="17" value="until: String" style="text;strokeColor=none;fillColor=none;align=left;verticalAlign=top;spacingLeft=4;spacingRight=4;overflow=hidden;rotatable=0;points=[[0,0.5],[1,0.5]];portConstraint=eastwest;" vertex="1" parent="14">
                    <mxGeometry y="78" width="140" height="26" as="geometry"/>
                </mxCell>
                <mxCell id="18" value="price: Number" style="text;strokeColor=none;fillColor=none;align=left;verticalAlign=top;spacingLeft=4;spacingRight=4;overflow=hidden;rotatable=0;points=[[0,0.5],[1,0.5]];portConstraint=eastwest;" vertex="1" parent="14">
                    <mxGeometry y="104" width="140" height="26" as="geometry"/>
                </mxCell>
                <mxCell id="48" value="supplier_id: ObjectId" style="text;strokeColor=none;fillColor=none;align=left;verticalAlign=top;spacingLeft=4;spacingRight=4;overflow=hidden;rotatable=0;points=[[0,0.5],[1,0.5]];portConstraint=eastwest;" vertex="1" parent="14">
                    <mxGeometry y="130" width="140" height="26" as="geometry"/>
                </mxCell>
                <mxCell id="19" value="SaleItem" style="swimlane;fontStyle=0;childLayout=stackLayout;horizontal=1;startSize=26;fillColor=none;horizontalStack=0;resizeParent=1;resizeParentMax=0;resizeLast=0;collapsible=1;marginBottom=0;" vertex="1" parent="1">
                    <mxGeometry x="285" y="240" width="140" height="104" as="geometry">
                        <mxRectangle x="285" y="200" width="90" height="30" as="alternateBounds"/>
                    </mxGeometry>
                </mxCell>
                <mxCell id="21" value="order: Number" style="text;strokeColor=none;fillColor=none;align=left;verticalAlign=top;spacingLeft=4;spacingRight=4;overflow=hidden;rotatable=0;points=[[0,0.5],[1,0.5]];portConstraint=eastwest;" vertex="1" parent="19">
                    <mxGeometry y="26" width="140" height="26" as="geometry"/>
                </mxCell>
                <mxCell id="22" value="quantily: Number" style="text;strokeColor=none;fillColor=none;align=left;verticalAlign=top;spacingLeft=4;spacingRight=4;overflow=hidden;rotatable=0;points=[[0,0.5],[1,0.5]];portConstraint=eastwest;" vertex="1" parent="19">
                    <mxGeometry y="52" width="140" height="26" as="geometry"/>
                </mxCell>
                <mxCell id="47" value="product_id: ObjectId" style="text;strokeColor=none;fillColor=none;align=left;verticalAlign=top;spacingLeft=4;spacingRight=4;overflow=hidden;rotatable=0;points=[[0,0.5],[1,0.5]];portConstraint=eastwest;" vertex="1" parent="19">
                    <mxGeometry y="78" width="140" height="26" as="geometry"/>
                </mxCell>
                <mxCell id="25" value="Supplier" style="swimlane;fontStyle=0;childLayout=stackLayout;horizontal=1;startSize=26;fillColor=none;horizontalStack=0;resizeParent=1;resizeParentMax=0;resizeLast=0;collapsible=1;marginBottom=0;" vertex="1" parent="1">
                    <mxGeometry x="520" y="40" width="140" height="156" as="geometry"/>
                </mxCell>
                <mxCell id="26" value="_id: Objectld" style="text;strokeColor=none;fillColor=none;align=left;verticalAlign=top;spacingLeft=4;spacingRight=4;overflow=hidden;rotatable=0;points=[[0,0.5],[1,0.5]];portConstraint=eastwest;" vertex="1" parent="25">
                    <mxGeometry y="26" width="140" height="26" as="geometry"/>
                </mxCell>
                <mxCell id="27" value="name: String" style="text;strokeColor=none;fillColor=none;align=left;verticalAlign=top;spacingLeft=4;spacingRight=4;overflow=hidden;rotatable=0;points=[[0,0.5],[1,0.5]];portConstraint=eastwest;" vertex="1" parent="25">
                    <mxGeometry y="52" width="140" height="26" as="geometry"/>
                </mxCell>
                <mxCell id="28" value="address: String" style="text;strokeColor=none;fillColor=none;align=left;verticalAlign=top;spacingLeft=4;spacingRight=4;overflow=hidden;rotatable=0;points=[[0,0.5],[1,0.5]];portConstraint=eastwest;" vertex="1" parent="25">
                    <mxGeometry y="78" width="140" height="26" as="geometry"/>
                </mxCell>
                <mxCell id="29" value="phone: String" style="text;strokeColor=none;fillColor=none;align=left;verticalAlign=top;spacingLeft=4;spacingRight=4;overflow=hidden;rotatable=0;points=[[0,0.5],[1,0.5]];portConstraint=eastwest;" vertex="1" parent="25">
                    <mxGeometry y="104" width="140" height="26" as="geometry"/>
                </mxCell>
                <mxCell id="30" value="country: String" style="text;strokeColor=none;fillColor=none;align=left;verticalAlign=top;spacingLeft=4;spacingRight=4;overflow=hidden;rotatable=0;points=[[0,0.5],[1,0.5]];portConstraint=eastwest;" vertex="1" parent="25">
                    <mxGeometry y="130" width="140" height="26" as="geometry"/>
                </mxCell>
                <mxCell id="31" value="n" style="endArrow=open;html=1;endSize=12;startArrow=diamondThin;startSize=14;startFill=1;align=left;verticalAlign=bottom;entryX=-0.009;entryY=0.078;entryDx=0;entryDy=0;entryPerimeter=0;exitX=0.996;exitY=0.099;exitDx=0;exitDy=0;exitPerimeter=0;" edge="1" parent="1" source="19" target="14">
                    <mxGeometry x="-0.9244" y="3" relative="1" as="geometry">
                        <mxPoint x="430" y="250" as="sourcePoint"/>
                        <mxPoint x="580" y="250" as="targetPoint"/>
                        <mxPoint as="offset"/>
                    </mxGeometry>
                </mxCell>
                <mxCell id="32" value="n" style="endArrow=open;html=1;endSize=12;startArrow=diamondThin;startSize=14;startFill=1;align=left;verticalAlign=bottom;exitX=0.5;exitY=0;exitDx=0;exitDy=0;entryX=0.5;entryY=1;entryDx=0;entryDy=0;" edge="1" parent="1" source="14" target="25">
                    <mxGeometry x="-0.8636" y="-7" relative="1" as="geometry">
                        <mxPoint x="510" y="220" as="sourcePoint"/>
                        <mxPoint x="670" y="220" as="targetPoint"/>
                        <mxPoint as="offset"/>
                    </mxGeometry>
                </mxCell>
                <mxCell id="34" value="n" style="endArrow=open;html=1;endSize=12;startArrow=diamondThin;startSize=14;startFill=1;align=left;verticalAlign=bottom;exitX=0.5;exitY=0;exitDx=0;exitDy=0;" edge="1" parent="1" source="19">
                    <mxGeometry x="-0.9371" y="-9" relative="1" as="geometry">
                        <mxPoint x="360" y="196" as="sourcePoint"/>
                        <mxPoint x="355" y="170" as="targetPoint"/>
                        <mxPoint as="offset"/>
                    </mxGeometry>
                </mxCell>
                <mxCell id="38" value="" style="shape=stencil(lZ3ZsiQ3jkS/Rq9p3Jfnnpn/kFlXt2Tdo5KV1LP8/ZAji7w33SMPS29agLwRDBAEHA7wh/yX33768dcvP6Tw2+/fvv7jy3///Nfff/oh/9sPKf38y09fvv38+/qnH/K//5D/8rev3778/dvXf/3y1z/+/dcft+T+p//8+l/7F/7nD70aHrlurRT+94//Eh95/P9/+I8/5P/58y+f5Mt4jC7ykeT7o2aRDw3k26Pp84QE8vXRxot8eMwO8uXRuspnkM+PHlU+gnx6zKDyAeTjoxeRH7Se4VFNfr6Xz9OfH+XHo+c/8Ty5+3oO+L65PWpS+QLyVe1zycP3yuUR7Xnge+X8CLaeJB8fU+3tIB/s+cGec3ik9ifeN82b9awgP67//X3fa8nHqfKwv5Ltd7af1NSfsH2m+uj6vrQfU3l0fV/a7ynf7F9az3y5v0/ytJ7pUe33aX3io6o9TFqf8Oiv3yteBv5OPqp/TmCfcdmb+ucC6xPHYxaR7yyfX+XTI8D6xP7oXeQLfN8lH6PId/r9dv3cJZ+vBbuXr48SRb7SepbLfXzId5ZPKj9JPj/a635ZDhLsYcmHIPIZ7C2mK1z4kG/0feNj6O/T+bjkw+v6V4xP4jofp8h3ev7lb1+fpz0yrOe8vMGHOJnzfJRX6+yPAt5hqjPp6AzH5fou8efmeSPesojT0qwfe/U885Fg5ce1Tz/E6aDragfrSxR4+K5xz4dlvJFPU+Ub/n54Xctt2XCwND1XPnbOG3nx+5E3ensk8csFTadex9pTvl6e4o28xtn18tRv5Iusf8P1rBrHLM9LG6tqnLROAlrPcoVFn+QbWHN51FfzXCdZwd/Pr35znZQBf1/Mf5/E4BnyFRY95VfiBYFVvlb7kzwFDlnPoR15UOCp3yuxPWfdL/uNKLC6vMFTvlwn0xt5yeu2hVDgo3HJtnB8Hl2fteMoUNJzYsnT+luekJ6Ryht5jWOWPcP+tbjwIxN4I59ff39lGgWfJ71+r5XJYGClcVVO1/nxRj7I72f0t0HXMxf0b88w/ClfMfAJerCvTDXA+rh8x/0SNA5e8hS4ufzARM3l+fw1+RIuJOI75dd5+meep6TLA3+n/Aqc+fu+rn8p6D/NHkq9Mtvvs7clT8DSMy17yjcO5NV/ls6JlMXlA4E3f56Bgbavz8TzPWi8UZc/YXt7ff4aD+s/pspTfOLy6UKmvlM+n+zn1V/Vgom1rWc9JEZqD7VyIn7BqJ/kMZF9RFn/xomU+vPaEbiN1+n8SZ6AIpfnbMSfh/1bVNyqMfATNV9oCeONeEWPT/mM6VHU/KUV3C/ximaf8isCx98XXK+dvq/4t9avjONN/CPrv+QRiLK8elxI9Bv5LPLzitDexW+v+7EHPN+T4pL9AOwpbtIj2mdS3Lw/I9h38bAgA/lCLt7F26/208sVAb6L5wVKqIffl/i5N/RXWfOv3vF9yyPKeg48X8p1Gj7l13mE+ZrgniNg/FDVPgfnX1Xzr7F2BKx/U/+25Cl+a+ofBsc/TffvKJeHf4NvSP6+5Ck/6pqfjhUvgT0M3b+j4vcd6t9GQ3871f6XPK3PVFxyyVOhwIC90fH5Y1BobwwEFKJFHGNiBBSjpuRLgULQD4TrCcFxsSkmBVdnRKNYCuX1HWa66nPvFMRMZ8Z6bsyK0ywFyjPiE59+KhT+DuXah58UBilULUlMTh2WgvjGpVDpw62j2hQo2I3rrH41vtk4+x/X5v2kgHWDqfn57Jc53p9nQQPYpVDpgA1mrZ0jhKil4Mkh5o5Z5B0GGl+y4v0c6PQ+ijWfFHCVisI2S4GOnWT1pKVAeeI6GKSGsBQqmPc+Saop0Cp1pSxsBQodh9ZktgKt0rxC3U8KBIZlc8aT0eBs8Nnk9CMnjS8m59ObiCB/YaLx5aoRwFKgiDY3TTGXAkGYedgGmojJ56kg7JzMDgoaNcwDyh4V9jkpJK2Xnh4pm/FNBCZL0cxiK8COK34+TKzDFXf3B4VupbiDwjCvcVCYWp46vHQN14b8zr9QoyZI21phx9WkzKWtQBF9tuBkXknrvYJxQ9aeJrJKrfYXnnSpewX/0oOzkq5p2z5QKC0xfs4+4+jDTQWC9ilKiUa4USDv3Vbcauc0femWrsrmJwVylc1IDSua6fRIRbON+cy37hXq9XufFDJ86Wb52OR8pg074yoXzINFMxXP6Q1YBFVIpJCVW7IiY8qZerlC808KBDL0ZiSBwo/UFWZb6QDFfH0oH24yAadPTVyXAkX3fWolc+VA5DVG0FR0KdAGGoY1LwXC5kbU5H7lcfThRjK/FNG8R1Y6wgxMHrH69lJAcorlcSvbpS89qiYcSwHfoWriNwZa62gaCSwFwnyGkUjWf6Ei0MYYgiqQux9Do/v1kOQ1loKccUuBEo4xNUjc60arNDVpWgoUws1gy1owF52OnBTEhpcxS/izzRGMb2+XrArkl6bRDUZiZle+YvlPeCOlNEtBP1xAgHV5UtnTfZ4UhD62IVn6cMYB2u6ZMLtqf4GNbx+yr1u0V0xp9rkvL10uYPdeoSvfdZ16tKdn15ivJyy87nDq1bzXQZzpkcZFNHgqBF5Ww1rbxNr9hgymKlAxb2fPr99hhyv8F4aVh3DHWR/JUjiskthS4wL7NObxUiCEfCvIS1eEWm4UGEncCl0V4uEdRCGz5xtW1ksIhNwoRASZbxUour9RCIis3yxrwFL7Vnh1lSvJQWdsprHSKDrjtkJWBYo1PsChpwJnWXNocFKZL7kzT3mHdtqiwvhc6SxVcD9QvU8KWHIx1GFl2AdbSlMVCMyZlu1WZtG6b61Ma1zeW20pcSTQtfBeI29Rg083lkK21BUoLxNLidN6cJZCpO/QjcQ/MD3eCf3rGVc6sit2Qj9Vgeh+uzzx+uF2ZyC9dNOEYxO2yHs3PbIKVzg/MIanQjm9g1QHysF7u0JC0seNQsSU5kYhYNFlKwivc2JpaikIZrwUKKWZTWONPDhubdrHkLlKsxXkHTpyGzY41FUBg0TraszMnphNQ+mlcHgHScty5fyhKQq3FAhUWwqSoeRDltVuKLxEcd7pQFAFfOknpe2pwCTSpSDdqEuBWLwfhdmnQjzmQPIODIRMI5rkgB1kOy0T5jgj67t8bdRxAqSWgjiyQ+PQNJxv1wD5HaSWtftr6DsUbbPbfVj8SNqfcdgPxQj8hWO+oh0pm8NEy5oVpthNGPTSVj3eLDLaD0bS2t2RtEpZrTUxzje9DSTwfsjKC4wT66IzaXQfJy+rdY5ErqFMKxzFjj3RG8yZqpD4kaTcHBsnfsm6uRp2ry0F8a3xAKpF60crJ8hLG9IYil8KSTrAMsetBmNHpsBtSDmrApVqZ1BcI3J38VKQovzuIiTsftqyBkzLxjRmDrbNjKEnFrM1lrxAzB335+gaNzT03MPCt4ptTqMaz/0EwmsigNDVB3D7IU/eYlc2Xn8/YxvAsD4GpnH3qbzUhOFwt3wycRtq01oob4FelReZEFHq2ee30LyCnpU4xpWl7p4OY5EebQufqqDqI9Ce2zQnhG2HzcrjkQvFVpCJuH9b1wroQb76/ASUN3ZjZBqx7a+DfNIgJ2J5tUUt1UfkirWgWTnL12l9z/i9lnwweaJLDItvkMq5CRwqT/65Nu3L5Db1Wn09Cd+tRf1JRKZEtRAzYluvs3QinvE1atwescpbrW8pYixXrc8sYltUDXbA43mxsTqVR/sMClbwfK0a9PyNWPqvN/NeqMhRrS8tIh6619/mZTHNS85fbruqUSvgPL+rxpv5Nmxv5v8pftjy+vsUz9zJE2J39zx0Ht29L0W4vp6H/Wvf67wf1V/hfr+xN6qD3Nkz4ZN3+4UQorv9SPH53X6n+PDOnxCJ985fUWLo/pDnTe3va/PrDvbwp+RtTsPBP2SNn7kNrxY9HwNyRWq9mYdG9tyUcMnz1qrxBwKfL8PnyyFjdKg/YdbH7oI1eVjPFV91XU+CzVpUbCTg/vL4MDBZ1OLPgPGVx7cH+ar51+H5rVAVsKCy4n+zn0N+kWz9iW0YbubvUduezQngeXE9Kv7A/qonZehEbHjp1ofK8U8vNocJ851u8DrHb71pMfWQzw6tiiTkF23OlebviOdEzR8TwnYjKak3I0FqFJvjgvH/qFor44r87sJU/IeqTKPr+VKvF3qLd73624aY+jBaRGc8yia0DSacGYJ4KK0HrbXEwMhvtA1zKDBFy8B4y9xgy4wZ3aDXCZ3ctGb7mJnXkWyVnn7gnYLCIsw833UK8XM8H20pCJ0yMg92F2fEEzU07WmtrrvswArqqzsGHzPrYR8HDp3wEtbuA/1TRbKlgJUQm1+5D1h6pKIA9iEj3rVHq3khN6XYqLHEhY1is9sy1ylsuN0eF8dlaam1pAOzsGoalw5crWqlRJ5/tmvxNjANiSDVVqmfGAvil7YvJtNoGosnbsdyTsSeaUnLatNfE7fgbyKIMBY4vpvNzvOD9zYWUmYEf/OcROFIKtLRaZmrzF1z0sxFl9n1QMkHJpVVsZYCGp+Nu9jttUxQcwYPer5uzJHGh2I30+gYat8qIKmoayx2IkYZUfBEverqW0/krq5dbif6WNd47ERQs79QGAHa7yARbmKahi1rOUQzXXOAUk6rpMzCip2rm3RqCkj56Td0SlwlI86Wzs7YCmHlyHiWAKvwZINNL7YRdbhKwz7cITgZVvxm9GKztoUiHZm2ZIT+mpgNNjXfqIn5NVOXtWb2S1bRrgVT+qWgI7YPVBO7g6LyEO9pLZb1YN7Wg1YbR2TTaAvt9A7CyquHfpWpQN5S4EnkQaGbU5OB/4lDG4O/xKFRYlr/yaEVw9b11OzhA9UP7SR3ChiSucKhJcbf4UDbdoVDW8+dAjomf4fKZ5bRHlo7+Rntx2pM5p1aqNkNXKwg2eueIMjGJ6FAG1ir3/MhZFkP1MKpYGM7dFZYN21neNjPrH7oDjG8sSf2M1050htyPTR7SENjOf0FgeB6PXVxygHR2ymn0aZMHr42DaXsg5GQquNSO3eXO4ow+CKnmRWRGlwZdW7uSAjNbiKsdARnrH3s2Ww28w9juKjFmFE4hosabIyDaQS99mEcTvagSMjuyifAeGrBdg/+YwWd1Ngxdhg2YmJ07sE3DuAYeMYN26IfsPY7FF6895g8qaDZOMXJXf7VhljwvOdlOd0UcCZFtjlk7CqXgqQok7mGI9n0kYQtkyPaMJHE38HYpJOhkz0bxBQo5ut2im5UGA7F5Rhlx82MFffedQNNPh96U0rXR7/IvYI1rMyKq9TtMovJbmYdsjrIj8tM6xiXstQHGnmr0Gx+6WlAkLVMfvSx3Ss0G6jYcIuuGFKNr2N+3Aztn9yU2ZINzOpcHY82zbOjM17ZgiSju0eY+D/TZkcNJmANG7M3sIW4+n4YTHExSHcyylyrzRbkpoFqo292Tk4vXcy8J9NG7bqZHe8Tz+huLt+BeKZ+aeL54MytyVj87Uw74kL41LxPOfm9hg3mO2rYRLijho0XPGrcTTDEF7+bkYhLm+4+Hs1ItAE7c/K9q8Gm9HJfWZ43Fos3l9oUlYPF5mbucmLSkatNJZ14CmW7RGryJRw52SnEjiD7pDC+Nijb/cCTIaM0b0ZPUsCebMzEhjD5ilEdussNsqnp6JizgkaWPCjVbzubXBfZrBpToKlzydgFcyLRe9ew7aXJayR3yNxG7FecTM5Skt21uBF6uqPCPTjzF+JQtuiuY9D0cKsTTr7GIFrj/g6yeBi4TrjlMC5aKf8wqzIaHWHjKTRu3CgVOzomhazIwzzcwpnNvAvflpZsGibP8YrGi5+Z70+yC15mQrJANCb6YajivhEgqAKxPDYTTJY1MAdDA8sxuWJmdyAwP8KmHA2+42XYnRI8I96wzY1bUCqqMeXHRMY38mJEg0fAGNd38MCvZndW8OBCo5vsIZeUORj8xtONqrJTNiRCZHobT5nwWCtKcRjcHFi0V3QwGTrrDuuH+MjAdD5wstZOe8ckxu/k4WZpmxvQK/JebOpqP92BqbUAxnqiVus6w1VR91fnZiEbKNy5ecx6B3pgp34zppBizah5TmN7iOoP20Dcye8E47kQ1hvVeCSbcfUbk5SC+ofGdwJbb1Q73bFZrVJKdcygoX7j5r1g494mFt0tXqwDyxE2IftwB124ubOO7/zUYXJci7DzfdMYWN4G7iXY70EJk/uOQX5+m89H54UTEk53JOrvn+5g1Odnpm7QokXlZk7/XuHwvYTHuO/ARPsX/1w4YwrqH/Ydnrxf/tQdocGm8vGIVKutHe84lSz3eIeq9Dod72hNQiE73QGr8qc7ZlX+dIetyp/uyBX54x28Kn+641fWc98hzOtj8nxHscqf7kBW+YokE39fTvKsKJN5OEuwO64T1mSs2JCf3dDvzkfh1578ieQLGxxD+9E70vkmJgNgUue70nSWRWpob3aRR2ISkd0xnioOso5aWdm3PmJ8JThe4ng4WRdFwv2YNJ9NnB/5HfWnO0Ilv/64Zf378pdDM6oxSuLE/DQrT3nJU7yRrVedCVl252fsaG82wf7QEFW0PB/5Frxis4P4zuRisx3qIb+W/RK5raEqXhGZ0FPVn+yBalRj0/1yaPSzCaAxor/y2TUB49tmsyk4H2ya70w0N4dzeLSVXXSBRddulDOMlbphCdwHbNdJH25P1Wnh3OKm/TaHwfa6T3iMdwzWUcEofdQ4numyfq8p3+axrFzjEmTxR5tZcLjKOyuFIGOz6vIC1kOOTPDq8riehhsm5H3sGob25CP8bwTQyLBM95ksNGQxmvFzy0+cuj4chsWpBZKA5Di/mTTwtaF2mSTX5z9GAnzn72dtreEWcj+nAx5bye7BC1g02y37SeWpUGjsxMClS2tLC2jPyW4FCOhPtvfU96WwNk2fKUNtddnyZLa3lXUEex4u4k+zZ5K3u+MDpu376lL7XsxzyPb84E+yTUs/rGdXziN/rzz0/GL7ydafxPZZDCfl3y+Gs/P7luQzaxKFtXZVVMAyXCm+f4ngWewyRL7KbaNO5p9pfSy04vuPit1NzV161eKTgGUmZ5oFLsMFf1/kylmez9e0V7v/LCCDoBoL+TBTL/iMUUxzfLDzacaZzZxFTqc1CZxnrqk8zuwLNu8bYclqt0szTFSNM3Wc+XiQX//w64+///THv/zt53/+87ffv339x5fP//9vX799+fu3r//65a/P//TbTz/++mX92/8B);lineShape=1;" vertex="1" parent="1">
                    <mxGeometry x="223.78715746307648" y="9.35323293250201" width="261.60945438520184" height="380.3908486844569" as="geometry"/>
                </mxCell>
            </root>
        </mxGraphModel>
    </diagram>
</mxfile>